<?xml version="1.0" encoding="utf-8"?>
<!-- Generator: Adobe Illustrator 19.0.0, SVG Export Plug-In . SVG Version: 6.00 Build 0)  -->
<svg version="1.1" id="Calque_1" xmlns="http://www.w3.org/2000/svg" xmlns:xlink="http://www.w3.org/1999/xlink" x="0px" y="0px"
	 viewBox="0 0 76.3 33.6" style="enable-background:new 0 0 76.3 33.6;" xml:space="preserve">
<style type="text/css">
	.st0{fill:#FEDC67;}
	.st1{fill:#EAA352;}
	.st2{fill:#231F20;}
	.st3{fill:#44ADE1;}
</style>
<g>
	<path class="st0" d="M22.5,13.5c0.1-0.3,0.3-0.5,0.4-0.8c0.2-0.7,0.1-1.3,0.1-2c-0.1-0.8-0.2-1.6-0.2-2.4c-0.1-1.2,0.1-2.4,0.6-3.5
		c0.3-0.7,0.8-1.3,1.6-1.5c0,0,0.1,0,0.1,0c0.7,0.1,1.2,0.5,1.4,1.2c0.2,0.6,0.3,1.2,0.4,1.8c0,1,0.1,2,0.1,3c0,1.2,0.1,2.4,0.2,3.6
		c0.2,1.2,0.4,2.5,1,3.6c0.4,0.8,0.7,1.6,0.9,2.4c0.3,1,0.4,2.1,0.3,3.2c-0.1,1.1-0.3,2.2-0.7,3.3c-0.3,0.9-0.7,1.7-1.2,2.5
		c-0.7,1.1-1.6,2.1-2.7,3c-0.7,0.6-1.4,1-2.2,1.4c-0.7,0.3-1.4,0.6-2.2,0.8c-0.2,0-0.3,0.1-0.5,0.1c-0.8-0.1-1.5-0.1-2.2-0.3
		c-1.4-0.5-2.6-1.2-3.8-2.1c-1.5-1.1-2.8-2.4-4-3.7c-0.4-0.4-0.9-0.8-1.4-1.3c-1.7-1.5-3.4-3-5.1-4.5c-0.9-0.8-1.7-1.6-2.6-2.3
		c-0.8-0.7-1-1.7-0.6-2.6c0-0.1,0.1-0.1,0.1-0.2c0.2-0.1,0.5-0.2,0.7-0.3c0.8-0.2,1.4,0,2,0.5c0.6,0.5,1.2,1.1,1.8,1.6
		c1.1,1,2.2,2,3.3,2.9c0.6,0.6,1.3,1.1,1.9,1.7c0.2,0.2,0.4,0.3,0.7,0.3c0.1,0,0.2,0,0.3,0c0.2,0,0.5,0.1,0.7,0.1
		c-0.3-0.2-0.5-0.4-0.7-0.7c-0.2-0.2-0.3-0.4-0.5-0.5c-0.3-0.2-0.6-0.5-0.8-0.7c-0.2-0.1-0.3-0.3-0.5-0.4C9,20.3,8.8,20.1,8.6,20
		c-0.6-0.6-1.2-1.1-1.8-1.7c-1.2-1-2.4-2.1-3.5-3.1c0-0.1-0.1-0.1-0.1-0.2c-0.6-0.5-1.1-1-1.7-1.5c-0.8-0.8-0.8-2.1-0.2-3
		c0,0,0.1-0.1,0.1-0.1c0,0.1,0,0.1-0.1,0.2c0.3-0.1,0.6-0.3,0.9-0.4c0.6-0.2,1.2-0.1,1.7,0.2c0.4,0.2,0.7,0.5,1,0.8
		c0.8,0.7,1.6,1.4,2.4,2.2c0.8,0.7,1.6,1.5,2.5,2.2c0.7,0.7,1.5,1.3,2.2,2c0.2,0.2,0.5,0.4,0.7,0.6c0.2,0.2,0.5,0.4,0.8,0.4
		c0.3,0,0.6,0.1,1,0.1c-0.1-0.1-0.1-0.1-0.1-0.1c-0.8-0.7-1.5-1.4-2.3-2c-0.8-0.7-1.5-1.4-2.3-2.1c-1-0.9-2-1.8-3-2.7
		c-0.3-0.2-0.5-0.5-0.8-0.7c-0.5-0.5-1.1-0.9-1.6-1.4c0,0,0,0,0,0c0,0,0,0,0,0l0,0C4.2,9.6,4,9.5,3.8,9.3C3.5,9,3.2,8.7,3.1,8.3
		C2.8,7.5,2.8,6.8,3.3,6C3.5,6,3.7,5.9,3.9,5.8c0.9-0.3,1.7-0.2,2.4,0.4c0.7,0.6,1.3,1.2,2,1.8C8.8,8.5,9.4,9,10,9.6
		c0.9,0.8,1.7,1.5,2.6,2.3c0.8,0.7,1.5,1.4,2.3,2c0.2,0.2,0.5,0.5,0.7,0.7c0.3,0.3,0.6,0.6,1.1,0.6c0.3,0,0.6,0.1,0.9,0.1
		c-0.1-0.1-0.1-0.1-0.2-0.2c-0.6-0.5-1.2-1.1-1.8-1.6c-0.8-0.7-1.6-1.5-2.5-2.2c-0.8-0.7-1.7-1.5-2.5-2.2C9.9,8.4,9.1,7.7,8.4,7
		C8.2,6.8,8,6.6,7.8,6.5C7.6,6,7.5,5.6,7.5,5.1c0-0.4,0.2-0.8,0.4-1.2c0,0,0.1,0,0.1-0.1c0.9-0.6,2-0.5,2.8,0.3
		c0.5,0.5,1,0.9,1.6,1.4c1,0.9,1.9,1.7,2.9,2.6c0.7,0.6,1.4,1.3,2.1,1.9c0.7,0.6,1.4,1.3,2.2,1.9c0.7,0.7,1.5,1.3,2.2,2
		c0,0,0.1,0.1,0.1,0.1c0,0-0.1,0.1-0.1,0.1c-0.9,0.7-1.6,1.6-2.1,2.6c-0.6,1.3-0.9,2.6-0.8,4.1c0.1,0.9,0.4,1.7,0.8,2.5
		c0.3,0.6,0.8,1.1,1.3,1.6c0.2,0.2,0.4,0.3,0.6,0.4c0,0,0,0,0,0.1c0,0,0,0,0,0c0,0,0,0-0.1,0c0,0,0-0.1-0.1-0.1
		c-0.8-0.8-1.5-1.7-1.8-2.9c-0.2-0.8-0.4-1.5-0.3-2.3c0.1-1.1,0.4-2.2,0.9-3.3c0.4-0.9,1-1.7,1.7-2.5C22.2,14.1,22.3,13.8,22.5,13.5
		z"/>
	<path class="st1" d="M19.9,33c0.2,0,0.3-0.1,0.5-0.1c0.8-0.1,1.5-0.4,2.2-0.8c0.8-0.4,1.5-0.9,2.2-1.4c1.1-0.9,2-1.8,2.7-3
		c0.5-0.8,0.9-1.6,1.2-2.5c0.4-1.1,0.6-2.2,0.7-3.3c0-1.1-0.1-2.1-0.3-3.2c-0.2-0.8-0.5-1.6-0.9-2.4c-0.5-1.2-0.8-2.4-1-3.6
		C27,11.6,27,10.4,27,9.1c0-1,0-2-0.1-3c0-0.6-0.1-1.2-0.4-1.8c-0.3-0.6-0.7-1.1-1.4-1.2c0.7-0.2,1.6,0.1,2,0.8
		c0.3,0.6,0.5,1.2,0.5,1.8C27.6,6.9,27.7,8,27.7,9c0.1,1.4,0.1,2.7,0.3,4c0.2,1.1,0.4,2.2,0.9,3.2c0.2,0.5,0.4,1,0.6,1.5
		c0.5,1.3,0.7,2.6,0.6,4c0,1.5-0.4,2.9-1,4.2c-0.6,1.4-1.5,2.7-2.6,3.8c-0.8,0.8-1.6,1.5-2.6,2C22.7,32.4,21.4,32.9,19.9,33
		C19.9,33,19.9,33,19.9,33z"/>
	<path class="st1" d="M21.7,25.4c-0.2-0.1-0.4-0.3-0.6-0.5c-0.5-0.5-1-1-1.3-1.6c-0.4-0.8-0.7-1.6-0.8-2.5c-0.1-1.4,0.2-2.8,0.8-4.1
		c0.5-1,1.2-1.9,2.1-2.6c0,0,0,0,0.1-0.1c0,0-0.1-0.1-0.1-0.1c-0.7-0.7-1.5-1.3-2.2-2c-0.7-0.6-1.4-1.3-2.2-1.9
		c-0.7-0.6-1.4-1.3-2.1-1.9c-1-0.9-1.9-1.7-2.9-2.6c-0.5-0.5-1-0.9-1.6-1.4C10.1,3.4,9,3.3,8,3.9c0,0-0.1,0-0.1,0.1
		c0.3-0.5,0.7-0.8,1.3-1c0.9-0.2,1.7,0.1,2.3,0.7c0.7,0.6,1.3,1.2,2,1.8c1.8,1.6,3.7,3.3,5.5,4.9c1.1,1,2.3,2.1,3.4,3.1
		c0,0,0,0,0,0.1c-0.2,0.3-0.3,0.6-0.5,0.8c-0.7,0.8-1.2,1.6-1.7,2.5c-0.5,1-0.8,2.1-0.9,3.3c0,0.8,0.1,1.6,0.3,2.3
		C20.1,23.5,20.8,24.5,21.7,25.4C21.6,25.3,21.6,25.3,21.7,25.4z"/>
	<path class="st1" d="M7.8,6.5C8,6.6,8.2,6.8,8.4,7c0.8,0.7,1.5,1.4,2.3,2.1c0.8,0.7,1.7,1.5,2.5,2.2c0.8,0.7,1.6,1.5,2.5,2.2
		c0.6,0.5,1.2,1.1,1.8,1.6c0,0,0.1,0.1,0.2,0.2c-0.3,0-0.6-0.1-0.9-0.1c-0.5,0-0.8-0.3-1.1-0.6c-0.3-0.2-0.5-0.5-0.7-0.7
		c-0.8-0.7-1.5-1.4-2.3-2c-0.9-0.8-1.7-1.5-2.6-2.3C9.4,9,8.8,8.5,8.2,8c-0.7-0.6-1.3-1.2-2-1.8C5.5,5.6,4.7,5.4,3.9,5.8
		C3.7,5.9,3.5,6,3.3,6c0.1-0.3,0.3-0.5,0.6-0.7c1-0.6,2.1-0.5,3,0.3C7.2,5.9,7.5,6.2,7.8,6.5z"/>
	<path class="st1" d="M4.3,9.8c0.5,0.5,1.1,0.9,1.6,1.4c0.3,0.2,0.5,0.5,0.8,0.7c1,0.9,2,1.8,3,2.7c0.8,0.7,1.5,1.4,2.3,2.1
		c0.8,0.7,1.5,1.4,2.3,2c0,0,0,0,0.1,0.1c-0.4,0-0.7-0.1-1-0.1c-0.4,0-0.6-0.2-0.8-0.4c-0.2-0.2-0.4-0.4-0.7-0.6
		c-0.7-0.7-1.5-1.3-2.2-2c-0.8-0.7-1.6-1.5-2.5-2.2c-0.8-0.7-1.6-1.5-2.4-2.2c-0.3-0.3-0.6-0.6-1-0.8c-0.5-0.3-1.1-0.4-1.7-0.2
		c-0.3,0.1-0.6,0.2-0.9,0.4c0-0.1,0.1-0.2,0.1-0.2c0,0,0,0,0,0c0,0,0,0,0.1-0.1c0,0,0,0,0,0c0,0,0,0,0.1,0C1.8,10,2.2,9.8,2.6,9.6
		c0,0,0,0,0,0c0.1,0,0.1,0,0.2,0C3.3,9.5,3.8,9.6,4.3,9.8C4.3,9.8,4.3,9.8,4.3,9.8C4.3,9.8,4.3,9.8,4.3,9.8z"/>
	<path class="st2" d="M12.1,2.1c0.3,0,0.5-0.1,0.8-0.1c1.4,0,2.7,0.3,3.9,0.9c1.3,0.7,2.3,1.7,3,3c0.5,1,0.8,2,0.9,3.2
		c0,0.2,0,0.4,0,0.5c0,0,0,0,0,0c-0.2-0.4-0.4-0.8-0.6-1.2c-0.5-0.8-0.9-1.7-1.5-2.4c-1-1.2-2.1-2.1-3.5-2.8
		c-0.6-0.3-1.1-0.5-1.7-0.8c-0.3-0.1-0.7-0.2-1.1-0.4C12.4,2.2,12.2,2.1,12.1,2.1C12.1,2.1,12.1,2.1,12.1,2.1z"/>
	<path class="st2" d="M10.1,30c-4.3,0.8-8.7-2.3-8.9-7.1c0.2,0.4,0.4,0.7,0.6,1.1c0.5,0.8,1.1,1.7,1.7,2.4c0.8,0.9,1.8,1.6,2.9,2.2
		c0.9,0.5,1.9,0.8,2.9,1.1C9.6,29.7,9.9,29.9,10.1,30z"/>
	<path class="st1" d="M3.2,15.2c1.2,1,2.4,2.1,3.5,3.1C7.4,18.9,8,19.4,8.6,20c0.2,0.2,0.4,0.3,0.6,0.5c0.2,0.1,0.3,0.3,0.5,0.4
		c0.3,0.2,0.6,0.5,0.8,0.7c0.2,0.2,0.4,0.3,0.5,0.5c0.2,0.2,0.5,0.4,0.7,0.7c-0.3,0-0.5-0.1-0.7-0.1c-0.1,0-0.2,0-0.3,0
		c-0.3,0-0.5-0.1-0.7-0.3c-0.6-0.6-1.3-1.1-1.9-1.7c-1.1-1-2.2-2-3.3-2.9C4.2,17.1,3.6,16.6,3,16c-0.6-0.5-1.3-0.7-2-0.5
		c-0.2,0.1-0.5,0.2-0.7,0.3c0.4-0.7,1-1,1.8-1C2.6,14.9,2.9,15,3.2,15.2z"/>
	<path class="st2" d="M10.8,32c-0.2,0.2-0.4,0.4-0.6,0.5c-1.7,1.1-3.5,1.5-5.4,0.8c-0.9-0.3-1.8-0.9-2.4-1.8
		c-0.1-0.2-0.2-0.4-0.3-0.6c1.3,0.7,2.7,1.3,4.2,1.4C7.8,32.5,9.3,32.3,10.8,32C10.8,31.9,10.8,31.9,10.8,32z"/>
	<path class="st2" d="M22.2,6.1c-0.1-0.3-0.3-0.6-0.4-0.9c-0.3-0.7-0.7-1.4-1.2-2.1c-0.5-0.7-1.2-1.2-1.9-1.7
		c-0.6-0.4-1.2-0.7-1.7-1c-0.2-0.1-0.4-0.3-0.6-0.4c0.2,0,0.4,0,0.7,0c1.3,0.1,2.5,0.5,3.5,1.4c1.2,1.1,1.7,2.4,1.7,3.9
		C22.4,5.6,22.3,5.9,22.2,6.1C22.3,6.1,22.3,6.1,22.2,6.1z"/>
	<path class="st0" d="M2.6,9.6C2.2,9.8,1.8,10,1.5,10.3c0,0,0,0-0.1,0c0.1-0.1,0.3-0.3,0.4-0.4C2.1,9.8,2.3,9.6,2.6,9.6z"/>
	<path class="st0" d="M2.8,9.6c-0.1,0-0.1,0-0.2,0C2.7,9.6,2.7,9.6,2.8,9.6z"/>
	<path class="st0" d="M1.4,10.3C1.4,10.3,1.4,10.4,1.4,10.3C1.4,10.4,1.4,10.3,1.4,10.3z"/>
	<path class="st3" d="M12.1,2.1C12.1,2.1,12.1,2.1,12.1,2.1C12.1,2.1,12.1,2.1,12.1,2.1C12.1,2.1,12.1,2.1,12.1,2.1
		C12.1,2.1,12.1,2.1,12.1,2.1z"/>
	<path class="st1" d="M21.6,25.3C21.7,25.4,21.7,25.4,21.6,25.3C21.7,25.4,21.7,25.4,21.6,25.3C21.7,25.4,21.7,25.4,21.6,25.3z"/>
</g>
<g>
	<path d="M47.7,21.6v-5.5h-4.9v5.5h-1.5V10.3h1.5v4.5h4.9v-4.5h1.5v11.3H47.7z"/>
	<path d="M58.4,17.6h-6c0,1,0.3,1.7,0.8,2.2c0.5,0.5,1.1,0.7,1.8,0.7c0.8,0,1.5-0.2,2.1-0.7l0.6,1.1c-0.2,0.2-0.6,0.4-1,0.6
		c-0.6,0.2-1.2,0.3-2,0.3c-1,0-1.9-0.4-2.6-1.1c-0.8-0.8-1.2-1.8-1.2-3.1c0-1.4,0.4-2.5,1.2-3.3c0.7-0.7,1.6-1.1,2.6-1.1
		c1.2,0,2.1,0.3,2.8,1c0.6,0.6,1,1.5,1,2.5C58.5,17,58.5,17.3,58.4,17.6z M54.9,14.4c-0.7,0-1.2,0.2-1.6,0.6
		c-0.4,0.4-0.7,0.9-0.7,1.5h4.6c0-0.6-0.2-1.1-0.6-1.5C56.1,14.6,55.6,14.4,54.9,14.4z"/>
	<path d="M60.2,19.3V10h1.5V19c0,0.4,0.1,0.8,0.4,1c0.3,0.3,0.6,0.4,1,0.4v1.3C61.1,21.8,60.2,20.9,60.2,19.3z"/>
	<path d="M64.8,19.3V10h1.5V19c0,0.4,0.1,0.8,0.4,1c0.3,0.3,0.6,0.4,1,0.4v1.3C65.8,21.8,64.8,20.9,64.8,19.3z"/>
	<path d="M68.8,17.4c0-1.3,0.3-2.3,1-3.1s1.6-1.2,2.7-1.2c1.2,0,2.1,0.4,2.8,1.1s1,1.8,1,3.1c0,1.3-0.3,2.4-1,3.2
		c-0.7,0.8-1.6,1.2-2.7,1.2c-1.2,0-2.1-0.4-2.8-1.2C69.2,19.8,68.8,18.8,68.8,17.4z M70.4,17.4c0,2.1,0.7,3.1,2.2,3.1
		c0.7,0,1.2-0.3,1.6-0.8c0.4-0.6,0.6-1.3,0.6-2.3c0-2-0.7-3.1-2.2-3.1c-0.7,0-1.2,0.3-1.6,0.8C70.6,15.7,70.4,16.5,70.4,17.4z"/>
</g>
</svg>
